<?xml version="1.0" encoding="UTF-8"?>
<svg width="128px" height="128px" viewBox="0 0 128 128" version="1.1" xmlns="http://www.w3.org/2000/svg" xmlns:xlink="http://www.w3.org/1999/xlink">
    <!-- Generator: Sketch 62 (91390) - https://sketch.com -->
    <title>icon</title>
    <desc>Created with Sketch.</desc>
    <g id="icon" stroke="none" stroke-width="1" fill="none" fill-rule="evenodd">
        <g id="wporg-icon">
            <rect id="bg" fill="#FFFFFF" fill-rule="evenodd" x="0" y="0" width="128" height="128"></rect>
            <path d="M93.5068493,82 L112,60.8828125 L100.90411,60.8828125 C100.082192,54.9479167 97.9589041,49.530599 94.5342466,44.6308594 C91.109589,39.7311198 86.7945205,35.9010417 81.5890411,33.140625 C76.3835616,30.3802083 70.6986301,29 64.5342466,29 C59.1917808,29 54.1232877,30.1041667 49.3287671,32.3125 C44.5342466,34.5208333 40.4246575,37.6263021 37,41.6289062 L37,41.6289062 L45.8356164,51.9804688 C48.0273973,49.0820312 50.7671233,46.7701823 54.0547945,45.0449219 C57.3424658,43.3196615 60.8356164,42.4570312 64.5342466,42.4570312 C70.0136986,42.4570312 74.8767123,44.1822917 79.1232877,47.6328125 C83.369863,51.0833333 86.109589,55.5 87.3424658,60.8828125 L87.3424658,60.8828125 L75.0136986,60.8828125 L93.5068493,82 Z M63.4657534,99 C68.8082192,99 73.8767123,97.8958333 78.6712329,95.6875 C83.4657534,93.4791667 87.5753425,90.3736979 91,86.3710938 L91,86.3710938 L82.1643836,76.0195312 C79.9726027,78.9179688 77.2328767,81.2298177 73.9452055,82.9550781 C70.6575342,84.6803385 67.1643836,85.5429688 63.4657534,85.5429688 C57.9863014,85.5429688 53.1232877,83.8177083 48.8767123,80.3671875 C44.630137,76.9166667 41.890411,72.5 40.6575342,67.1171875 L40.6575342,67.1171875 L52.9863014,67.1171875 L34.4931507,46 L16,67.1171875 L27.0958904,67.1171875 C27.9178082,73.0520833 30.0410959,78.469401 33.4657534,83.3691406 C36.890411,88.2688802 41.239726,92.0989583 46.5136986,94.859375 C51.7876712,97.6197917 57.4383562,99 63.4657534,99 Z" id="" fill="#CCAF09" fill-rule="nonzero"></path>
        </g>
    </g>
</svg>